#!OML:ASF F:\VICON\USERDATA\INSTALL\rory3\rory3.ASF
:FULLY-SPECIFIED
:DEGREES
50
root 0.536102 18.6097 -4.52388 6.30685 0.558868 -6.39001
lowerback 13.5268 0.759019 8.51182
upperback 0.267862 2.36446 0.452456
thorax -7.00263 0.871085 -4.77816
lowerneck -8.31868 -1.07978 -1.89926
upperneck -5.7748 -1.25313 1.11432
head -0.389839 -0.585969 0.624391
rclavicle 2.38542e-014 1.04362e-014
rhumerus -22.9353 19.3966 -82.805
rradius 116.214
rwrist -4.6801
rhand -33.8355 36.6888
rfingers 7.12502
rthumb -7.02082 6.82525
lclavicle 2.38542e-014 1.04362e-014
lhumerus -62.3647 -6.7399 94.715
lradius 106.431
lwrist 28.9448
lhand -33.5565 10.4366
lfingers 7.12502
lthumb -6.75145 40.3089
rfemur 27.0254 6.24032 33.7596
rtibia 5.34632
rfoot 36.9581 -8.91086
rtoes 23.547
lfemur -46.2404 -3.44169 -13.0455
ltibia 65.7704
lfoot 5.2739 -5.72968
ltoes -13.2384
51
root 0.52953 18.6759 -3.95864 6.31088 0.626081 -6.48672
lowerback 13.6511 0.878788 8.47262
upperback 0.0849635 2.53793 0.420638
thorax -7.24621 0.938979 -4.83089
lowerneck -8.29363 -1.2072 -1.89603
upperneck -5.69632 -1.4258 1.01573
head -0.368167 -0.672746 0.589569
rclavicle 2.16427e-014 8.94531e-015
rhumerus -23.9321 20.3282 -83.3043
rradius 116.393
rwrist -4.40128
rhand -34.2589 37.6848
rfingers 7.12502
rthumb -7.42947 7.83524
lclavicle 2.16427e-014 8.94531e-015
lhumerus -62.9876 -6.10699 94.2234
lradius 106.686
lwrist 29.102
lhand -33.43 10.5679
lfingers 7.12502
lthumb -6.62929 40.4441
rfemur 27.5158 6.59602 34.297
rtibia 7.01319
rfoot 36.8652 -7.87833
rtoes 24.8843
lfemur -45.5203 -3.82865 -12.7565
ltibia 60.3507
lfoot 5.00212 -6.2802
ltoes -16.692
52
root 0.525909 18.7264 -3.4083 6.33755 0.593869 -6.67782
lowerback 14.1689 1.1832 8.68272
upperback -0.734911 3.05825 0.18241
thorax -8.3372 1.0972 -5.34997
lowerneck -6.22126 -1.41638 -1.20903
upperneck -6.04988 -1.79035 0.798323
head -0.810963 -0.871595 0.420215
rclavicle -2.39039e-014 -2.78299e-014
rhumerus -26.615 20.4452 -84.5135
rradius 116.511
rwrist -4.13849
rhand -34.3286 38.6742
rfingers 7.12502
rthumb -7.49674 8.82709
lclavicle -2.39039e-014 -2.78299e-014
lhumerus -64.8644 -6.20946 93.8417
lradius 107.043
lwrist 28.8591
lhand -33.4515 11.0011
lfingers 7.12502
lthumb -6.65007 40.8767
rfemur 27.3099 7.05119 34.9665
rtibia 10.0565
rfoot 35.8156 -6.404
rtoes 24.7655
lfemur -44.6603 -3.99294 -12.416
ltibia 54.8824
lfoot 4.99381 -6.61114
ltoes -18.7184
53
root 0.520342 18.7558 -2.8643 6.26095 0.538584 -7.02079
lowerback 12.3572 1.21444 9.27404
upperback 0.673319 2.90182 -0.0263906
thorax -5.76987 1.18013 -5.75066
lowerneck -7.29191 -1.29618 -1.04605
upperneck -7.27186 -1.61352 0.984605
head -1.01786 -0.782881 0.452162
rclavicle -3.07122e-014 5.96354e-015
rhumerus -24.9779 21.0346 -84.6117
rradius 115.965
rwrist -3.96792
rhand -34.319 38.0562
rfingers 7.12502
rthumb -7.48748 8.20869
lclavicle -3.07122e-014 5.96354e-015
lhumerus -62.8065 -5.63521 92.776
lradius 107.146
lwrist 28.4356
lhand -33.3537 11.2202
lfingers 7.12502
lthumb -6.55571 41.0988
rfemur 26.8355 7.51123 35.8386
rtibia 13.851
rfoot 34.2453 -5.21622
rtoes 23.2422
lfemur -43.4834 -4.00932 -11.9693
ltibia 49.473
lfoot 5.63601 -6.40311
ltoes -18.1004
54
root 0.511838 18.7739 -2.31321 6.09458 0.479666 -7.46365
lowerback 13.5508 1.32261 9.14429
upperback 0.132964 3.20631 0.265743
thorax -6.99818 1.25174 -5.48995
lowerneck -7.08338 -1.25528 -1.16797
upperneck -7.26764 -1.559 0.837882
head -1.05103 -0.75177 0.429446
rclavicle 2.37548e-014 -1.78906e-015
rhumerus -26.977 21.6311 -85.2557
rradius 115.672
rwrist -3.69911
rhand -34.0478 37.2785
rfingers 7.12502
rthumb -7.22567 7.42188
lclavicle 2.37548e-014 -1.78906e-015
lhumerus -63.8475 -4.95743 92.7701
lradius 107.576
lwrist 28.0169
lhand -33.2591 11.5974
lfingers 7.12502
lthumb -6.46433 41.4788
rfemur 26.2319 7.96504 36.8255
rtibia 18.0379
rfoot 32.954 -4.38098
rtoes 21.2595
lfemur -42.1442 -3.93418 -11.4586
ltibia 44.3054
lfoot 6.14837 -5.98052
ltoes -18.3219
